{
    "asset" : {
        "generator" : "Khronos glTF Blender I/O v3.2.43",
        "version" : "2.0"
    },
    "scene" : 0,
    "scenes" : [
        {
            "name" : "Scene",
            "nodes" : [
                4
            ]
        }
    ],
    "nodes" : [
        {
            "name" : "Bone.002",
            "translation" : [
                0,
                4,
                0
            ]
        },
        {
            "children" : [
                0
            ],
            "name" : "Bone.001",
            "translation" : [
                0,
                4,
                0
            ]
        },
        {
            "children" : [
                1
            ],
            "name" : "Bone"
        },
        {
            "mesh" : 0,
            "name" : "Cube",
            "skin" : 0
        },
        {
            "children" : [
                3,
                2
            ],
            "name" : "Armature"
        }
    ],
    "animations" : [
        {
            "channels" : [
                {
                    "sampler" : 0,
                    "target" : {
                        "node" : 2,
                        "path" : "translation"
                    }
                },
                {
                    "sampler" : 1,
                    "target" : {
                        "node" : 2,
                        "path" : "rotation"
                    }
                },
                {
                    "sampler" : 2,
                    "target" : {
                        "node" : 2,
                        "path" : "scale"
                    }
                },
                {
                    "sampler" : 3,
                    "target" : {
                        "node" : 1,
                        "path" : "translation"
                    }
                },
                {
                    "sampler" : 4,
                    "target" : {
                        "node" : 1,
                        "path" : "rotation"
                    }
                },
                {
                    "sampler" : 5,
                    "target" : {
                        "node" : 1,
                        "path" : "scale"
                    }
                },
                {
                    "sampler" : 6,
                    "target" : {
                        "node" : 0,
                        "path" : "translation"
                    }
                },
                {
                    "sampler" : 7,
                    "target" : {
                        "node" : 0,
                        "path" : "rotation"
                    }
                },
                {
                    "sampler" : 8,
                    "target" : {
                        "node" : 0,
                        "path" : "scale"
                    }
                }
            ],
            "name" : "ArmatureAction",
            "samplers" : [
                {
                    "input" : 5,
                    "interpolation" : "LINEAR",
                    "output" : 6
                },
                {
                    "input" : 5,
                    "interpolation" : "LINEAR",
                    "output" : 7
                },
                {
                    "input" : 5,
                    "interpolation" : "LINEAR",
                    "output" : 8
                },
                {
                    "input" : 5,
                    "interpolation" : "LINEAR",
                    "output" : 9
                },
                {
                    "input" : 5,
                    "interpolation" : "LINEAR",
                    "output" : 10
                },
                {
                    "input" : 5,
                    "interpolation" : "LINEAR",
                    "output" : 11
                },
                {
                    "input" : 5,
                    "interpolation" : "LINEAR",
                    "output" : 12
                },
                {
                    "input" : 5,
                    "interpolation" : "LINEAR",
                    "output" : 13
                },
                {
                    "input" : 5,
                    "interpolation" : "LINEAR",
                    "output" : 14
                }
            ]
        }
    ],
    "meshes" : [
        {
            "name" : "Cube.001",
            "primitives" : [
                {
                    "attributes" : {
                        "POSITION" : 0,
                        "JOINTS_0" : 1,
                        "WEIGHTS_0" : 2
                    },
                    "indices" : 3
                }
            ]
        }
    ],
    "skins" : [
        {
            "inverseBindMatrices" : 4,
            "joints" : [
                2,
                1,
                0
            ],
            "name" : "Armature"
        }
    ],
    "accessors" : [
        {
            "bufferView" : 0,
            "componentType" : 5126,
            "count" : 16,
            "max" : [
                1,
                12,
                1
            ],
            "min" : [
                -1,
                0,
                -1
            ],
            "type" : "VEC3"
        },
        {
            "bufferView" : 1,
            "componentType" : 5121,
            "count" : 16,
            "type" : "VEC4"
        },
        {
            "bufferView" : 2,
            "componentType" : 5126,
            "count" : 16,
            "type" : "VEC4"
        },
        {
            "bufferView" : 3,
            "componentType" : 5123,
            "count" : 84,
            "type" : "SCALAR"
        },
        {
            "bufferView" : 4,
            "componentType" : 5126,
            "count" : 3,
            "type" : "MAT4"
        },
        {
            "bufferView" : 5,
            "componentType" : 5126,
            "count" : 3,
            "max" : [
                0.125
            ],
            "min" : [
                0.041666666666666664
            ],
            "type" : "SCALAR"
        },
        {
            "bufferView" : 6,
            "componentType" : 5126,
            "count" : 3,
            "type" : "VEC3"
        },
        {
            "bufferView" : 7,
            "componentType" : 5126,
            "count" : 3,
            "type" : "VEC4"
        },
        {
            "bufferView" : 8,
            "componentType" : 5126,
            "count" : 3,
            "type" : "VEC3"
        },
        {
            "bufferView" : 9,
            "componentType" : 5126,
            "count" : 3,
            "type" : "VEC3"
        },
        {
            "bufferView" : 10,
            "componentType" : 5126,
            "count" : 3,
            "type" : "VEC4"
        },
        {
            "bufferView" : 11,
            "componentType" : 5126,
            "count" : 3,
            "type" : "VEC3"
        },
        {
            "bufferView" : 12,
            "componentType" : 5126,
            "count" : 3,
            "type" : "VEC3"
        },
        {
            "bufferView" : 13,
            "componentType" : 5126,
            "count" : 3,
            "type" : "VEC4"
        },
        {
            "bufferView" : 14,
            "componentType" : 5126,
            "count" : 3,
            "type" : "VEC3"
        }
    ],
    "bufferViews" : [
        {
            "buffer" : 0,
            "byteLength" : 192,
            "byteOffset" : 0
        },
        {
            "buffer" : 0,
            "byteLength" : 64,
            "byteOffset" : 192
        },
        {
            "buffer" : 0,
            "byteLength" : 256,
            "byteOffset" : 256
        },
        {
            "buffer" : 0,
            "byteLength" : 168,
            "byteOffset" : 512
        },
        {
            "buffer" : 0,
            "byteLength" : 192,
            "byteOffset" : 680
        },
        {
            "buffer" : 0,
            "byteLength" : 12,
            "byteOffset" : 872
        },
        {
            "buffer" : 0,
            "byteLength" : 36,
            "byteOffset" : 884
        },
        {
            "buffer" : 0,
            "byteLength" : 48,
            "byteOffset" : 920
        },
        {
            "buffer" : 0,
            "byteLength" : 36,
            "byteOffset" : 968
        },
        {
            "buffer" : 0,
            "byteLength" : 36,
            "byteOffset" : 1004
        },
        {
            "buffer" : 0,
            "byteLength" : 48,
            "byteOffset" : 1040
        },
        {
            "buffer" : 0,
            "byteLength" : 36,
            "byteOffset" : 1088
        },
        {
            "buffer" : 0,
            "byteLength" : 36,
            "byteOffset" : 1124
        },
        {
            "buffer" : 0,
            "byteLength" : 48,
            "byteOffset" : 1160
        },
        {
            "buffer" : 0,
            "byteLength" : 36,
            "byteOffset" : 1208
        }
    ],
    "buffers" : [
        {
            "byteLength" : 1244,
            "uri" : "3bone.bin"
        }
    ]
}
