{
    "asset" : {
        "generator" : "Khronos glTF Blender I/O v3.2.43",
        "version" : "2.0"
    },
    "scene" : 0,
    "scenes" : [
        {
            "name" : "Scene",
            "nodes" : [
                0,
                1
            ]
        }
    ],
    "nodes" : [
        {
            "mesh" : 0,
            "name" : "Cube",
            "rotation" : [
                0,
                0.3420201241970062,
                0,
                0.9396926164627075
            ],
            "translation" : [
                -1.899999976158142,
                0,
                -1.7000000476837158
            ]
        },
        {
            "mesh" : 1,
            "name" : "Cube.001",
            "rotation" : [
                0,
                0.6755901575088501,
                0,
                0.7372773885726929
            ],
            "translation" : [
                2.5999999046325684,
                0,
                0.19999992847442627
            ]
        }
    ],
    "materials" : [
        {
            "doubleSided" : true,
            "name" : "Material",
            "pbrMetallicRoughness" : {
                "baseColorFactor" : [
                    0.800000011920929,
                    0.800000011920929,
                    0.800000011920929,
                    1
                ],
                "metallicFactor" : 0,
                "roughnessFactor" : 0.4000000059604645
            }
        }
    ],
    "meshes" : [
        {
            "name" : "Cube",
            "primitives" : [
                {
                    "attributes" : {
                        "POSITION" : 0,
                        "NORMAL" : 1,
                        "TANGENT" : 2,
                        "TEXCOORD_0" : 3
                    },
                    "indices" : 4,
                    "material" : 0
                }
            ]
        },
        {
            "name" : "Cube.001",
            "primitives" : [
                {
                    "attributes" : {
                        "POSITION" : 5,
                        "NORMAL" : 6,
                        "TANGENT" : 7,
                        "TEXCOORD_0" : 8
                    },
                    "indices" : 4,
                    "material" : 0
                }
            ]
        }
    ],
    "accessors" : [
        {
            "bufferView" : 0,
            "componentType" : 5126,
            "count" : 24,
            "max" : [
                1,
                1,
                1
            ],
            "min" : [
                -1,
                -1,
                -1
            ],
            "type" : "VEC3"
        },
        {
            "bufferView" : 1,
            "componentType" : 5126,
            "count" : 24,
            "type" : "VEC3"
        },
        {
            "bufferView" : 2,
            "componentType" : 5126,
            "count" : 24,
            "type" : "VEC4"
        },
        {
            "bufferView" : 3,
            "componentType" : 5126,
            "count" : 24,
            "type" : "VEC2"
        },
        {
            "bufferView" : 4,
            "componentType" : 5123,
            "count" : 36,
            "type" : "SCALAR"
        },
        {
            "bufferView" : 5,
            "componentType" : 5126,
            "count" : 24,
            "max" : [
                1,
                1,
                1
            ],
            "min" : [
                -1,
                -1,
                -1
            ],
            "type" : "VEC3"
        },
        {
            "bufferView" : 6,
            "componentType" : 5126,
            "count" : 24,
            "type" : "VEC3"
        },
        {
            "bufferView" : 7,
            "componentType" : 5126,
            "count" : 24,
            "type" : "VEC4"
        },
        {
            "bufferView" : 8,
            "componentType" : 5126,
            "count" : 24,
            "type" : "VEC2"
        }
    ],
    "bufferViews" : [
        {
            "buffer" : 0,
            "byteLength" : 288,
            "byteOffset" : 0
        },
        {
            "buffer" : 0,
            "byteLength" : 288,
            "byteOffset" : 288
        },
        {
            "buffer" : 0,
            "byteLength" : 384,
            "byteOffset" : 576
        },
        {
            "buffer" : 0,
            "byteLength" : 192,
            "byteOffset" : 960
        },
        {
            "buffer" : 0,
            "byteLength" : 72,
            "byteOffset" : 1152
        },
        {
            "buffer" : 0,
            "byteLength" : 288,
            "byteOffset" : 1224
        },
        {
            "buffer" : 0,
            "byteLength" : 288,
            "byteOffset" : 1512
        },
        {
            "buffer" : 0,
            "byteLength" : 384,
            "byteOffset" : 1800
        },
        {
            "buffer" : 0,
            "byteLength" : 192,
            "byteOffset" : 2184
        }
    ],
    "buffers" : [
        {
            "byteLength" : 2376,
            "uri" : "double_cube.bin"
        }
    ]
}
