{
    "asset" : {
        "generator" : "Khronos glTF Blender I/O v3.2.43",
        "version" : "2.0"
    },
    "scene" : 0,
    "scenes" : [
        {
            "name" : "Scene",
            "nodes" : [
                10
            ]
        }
    ],
    "nodes" : [
        {
            "name" : "RightLowerLeg",
            "rotation" : [
                3.448903438367382e-15,
                -1.8590360362225056e-09,
                1.303851515643828e-08,
                1
            ],
            "translation" : [
                -5.960464477539063e-08,
                1.3009613752365112,
                1.7763568394002505e-15
            ]
        },
        {
            "children" : [
                0
            ],
            "name" : "RightLeg",
            "rotation" : [
                -8.639413806577068e-08,
                -4.339914383422183e-08,
                -0.5092843174934387,
                0.8605983257293701
            ],
            "scale" : [
                1,
                0.9999999403953552,
                1
            ],
            "translation" : [
                0,
                0.6708203554153442,
                0
            ]
        },
        {
            "children" : [
                1
            ],
            "name" : "RightHip",
            "rotation" : [
                0.6015010476112366,
                -0.3717479705810547,
                0.3717479109764099,
                0.6015009880065918
            ],
            "translation" : [
                0,
                1,
                0
            ]
        },
        {
            "name" : "Head",
            "rotation" : [
                0,
                -1.721331956618915e-21,
                0,
                1
            ],
            "translation" : [
                0,
                2,
                0
            ]
        },
        {
            "children" : [
                3
            ],
            "name" : "Spine",
            "rotation" : [
                -0.7071068286895752,
                5.338508302088485e-08,
                5.338508302088485e-08,
                0.7071068286895752
            ],
            "translation" : [
                0,
                1,
                0
            ]
        },
        {
            "name" : "LeftLowerLeg",
            "rotation" : [
                3.725290298461914e-09,
                -1.8662580369976922e-09,
                -3.4004878821352735e-15,
                1
            ],
            "translation" : [
                0,
                1.3009613752365112,
                -1.862645149230957e-08
            ]
        },
        {
            "children" : [
                5
            ],
            "name" : "LeftLeg",
            "rotation" : [
                0.5092843770980835,
                8.322851385855756e-08,
                -7.292033643579998e-09,
                0.8605983257293701
            ],
            "translation" : [
                2.6645352591003757e-15,
                0.670820415019989,
                -1.6653345369377348e-15
            ]
        },
        {
            "children" : [
                6
            ],
            "name" : "LeftHip",
            "rotation" : [
                0.16245976090431213,
                -0.1624598652124405,
                -0.6881909966468811,
                0.6881909370422363
            ],
            "translation" : [
                0,
                1,
                0
            ]
        },
        {
            "children" : [
                2,
                4,
                7
            ],
            "name" : "Root",
            "rotation" : [
                0.7071068286895752,
                -5.338508302088485e-08,
                -5.338508302088485e-08,
                0.7071068286895752
            ],
            "translation" : [
                0,
                0,
                -1
            ]
        },
        {
            "mesh" : 0,
            "name" : "ManMesh",
            "skin" : 0
        },
        {
            "children" : [
                9,
                8
            ],
            "name" : "Armature"
        }
    ],
    "animations" : [
        {
            "channels" : [
                {
                    "sampler" : 0,
                    "target" : {
                        "node" : 8,
                        "path" : "translation"
                    }
                },
                {
                    "sampler" : 1,
                    "target" : {
                        "node" : 8,
                        "path" : "rotation"
                    }
                },
                {
                    "sampler" : 2,
                    "target" : {
                        "node" : 8,
                        "path" : "scale"
                    }
                },
                {
                    "sampler" : 3,
                    "target" : {
                        "node" : 2,
                        "path" : "translation"
                    }
                },
                {
                    "sampler" : 4,
                    "target" : {
                        "node" : 2,
                        "path" : "rotation"
                    }
                },
                {
                    "sampler" : 5,
                    "target" : {
                        "node" : 2,
                        "path" : "scale"
                    }
                },
                {
                    "sampler" : 6,
                    "target" : {
                        "node" : 1,
                        "path" : "translation"
                    }
                },
                {
                    "sampler" : 7,
                    "target" : {
                        "node" : 1,
                        "path" : "rotation"
                    }
                },
                {
                    "sampler" : 8,
                    "target" : {
                        "node" : 1,
                        "path" : "scale"
                    }
                },
                {
                    "sampler" : 9,
                    "target" : {
                        "node" : 0,
                        "path" : "translation"
                    }
                },
                {
                    "sampler" : 10,
                    "target" : {
                        "node" : 0,
                        "path" : "rotation"
                    }
                },
                {
                    "sampler" : 11,
                    "target" : {
                        "node" : 0,
                        "path" : "scale"
                    }
                },
                {
                    "sampler" : 12,
                    "target" : {
                        "node" : 4,
                        "path" : "translation"
                    }
                },
                {
                    "sampler" : 13,
                    "target" : {
                        "node" : 4,
                        "path" : "rotation"
                    }
                },
                {
                    "sampler" : 14,
                    "target" : {
                        "node" : 4,
                        "path" : "scale"
                    }
                },
                {
                    "sampler" : 15,
                    "target" : {
                        "node" : 3,
                        "path" : "translation"
                    }
                },
                {
                    "sampler" : 16,
                    "target" : {
                        "node" : 3,
                        "path" : "rotation"
                    }
                },
                {
                    "sampler" : 17,
                    "target" : {
                        "node" : 3,
                        "path" : "scale"
                    }
                },
                {
                    "sampler" : 18,
                    "target" : {
                        "node" : 7,
                        "path" : "translation"
                    }
                },
                {
                    "sampler" : 19,
                    "target" : {
                        "node" : 7,
                        "path" : "rotation"
                    }
                },
                {
                    "sampler" : 20,
                    "target" : {
                        "node" : 7,
                        "path" : "scale"
                    }
                },
                {
                    "sampler" : 21,
                    "target" : {
                        "node" : 6,
                        "path" : "translation"
                    }
                },
                {
                    "sampler" : 22,
                    "target" : {
                        "node" : 6,
                        "path" : "rotation"
                    }
                },
                {
                    "sampler" : 23,
                    "target" : {
                        "node" : 6,
                        "path" : "scale"
                    }
                },
                {
                    "sampler" : 24,
                    "target" : {
                        "node" : 5,
                        "path" : "translation"
                    }
                },
                {
                    "sampler" : 25,
                    "target" : {
                        "node" : 5,
                        "path" : "rotation"
                    }
                },
                {
                    "sampler" : 26,
                    "target" : {
                        "node" : 5,
                        "path" : "scale"
                    }
                }
            ],
            "name" : "ArmatureAction.001",
            "samplers" : [
                {
                    "input" : 7,
                    "interpolation" : "LINEAR",
                    "output" : 8
                },
                {
                    "input" : 7,
                    "interpolation" : "LINEAR",
                    "output" : 9
                },
                {
                    "input" : 7,
                    "interpolation" : "LINEAR",
                    "output" : 10
                },
                {
                    "input" : 7,
                    "interpolation" : "LINEAR",
                    "output" : 11
                },
                {
                    "input" : 7,
                    "interpolation" : "LINEAR",
                    "output" : 12
                },
                {
                    "input" : 7,
                    "interpolation" : "LINEAR",
                    "output" : 13
                },
                {
                    "input" : 7,
                    "interpolation" : "LINEAR",
                    "output" : 14
                },
                {
                    "input" : 7,
                    "interpolation" : "LINEAR",
                    "output" : 15
                },
                {
                    "input" : 7,
                    "interpolation" : "LINEAR",
                    "output" : 16
                },
                {
                    "input" : 7,
                    "interpolation" : "LINEAR",
                    "output" : 17
                },
                {
                    "input" : 7,
                    "interpolation" : "LINEAR",
                    "output" : 18
                },
                {
                    "input" : 7,
                    "interpolation" : "LINEAR",
                    "output" : 19
                },
                {
                    "input" : 7,
                    "interpolation" : "LINEAR",
                    "output" : 20
                },
                {
                    "input" : 7,
                    "interpolation" : "LINEAR",
                    "output" : 21
                },
                {
                    "input" : 7,
                    "interpolation" : "LINEAR",
                    "output" : 22
                },
                {
                    "input" : 7,
                    "interpolation" : "LINEAR",
                    "output" : 23
                },
                {
                    "input" : 7,
                    "interpolation" : "LINEAR",
                    "output" : 24
                },
                {
                    "input" : 7,
                    "interpolation" : "LINEAR",
                    "output" : 25
                },
                {
                    "input" : 7,
                    "interpolation" : "LINEAR",
                    "output" : 26
                },
                {
                    "input" : 7,
                    "interpolation" : "LINEAR",
                    "output" : 27
                },
                {
                    "input" : 7,
                    "interpolation" : "LINEAR",
                    "output" : 28
                },
                {
                    "input" : 7,
                    "interpolation" : "LINEAR",
                    "output" : 29
                },
                {
                    "input" : 7,
                    "interpolation" : "LINEAR",
                    "output" : 30
                },
                {
                    "input" : 7,
                    "interpolation" : "LINEAR",
                    "output" : 31
                },
                {
                    "input" : 7,
                    "interpolation" : "LINEAR",
                    "output" : 32
                },
                {
                    "input" : 7,
                    "interpolation" : "LINEAR",
                    "output" : 33
                },
                {
                    "input" : 7,
                    "interpolation" : "LINEAR",
                    "output" : 34
                }
            ]
        }
    ],
    "materials" : [
        {
            "doubleSided" : true,
            "name" : "Material",
            "pbrMetallicRoughness" : {
                "baseColorFactor" : [
                    0.800000011920929,
                    0.800000011920929,
                    0.800000011920929,
                    1
                ],
                "metallicFactor" : 0,
                "roughnessFactor" : 0.4000000059604645
            }
        }
    ],
    "meshes" : [
        {
            "name" : "Man",
            "primitives" : [
                {
                    "attributes" : {
                        "POSITION" : 0,
                        "NORMAL" : 1,
                        "TEXCOORD_0" : 2,
                        "JOINTS_0" : 3,
                        "WEIGHTS_0" : 4
                    },
                    "indices" : 5,
                    "material" : 0
                }
            ]
        }
    ],
    "skins" : [
        {
            "inverseBindMatrices" : 6,
            "joints" : [
                8,
                2,
                1,
                0,
                4,
                3,
                7,
                6,
                5
            ],
            "name" : "Armature"
        }
    ],
    "accessors" : [
        {
            "bufferView" : 0,
            "componentType" : 5126,
            "count" : 164,
            "max" : [
                3,
                3,
                0.5
            ],
            "min" : [
                -3,
                -3,
                -0.5
            ],
            "type" : "VEC3"
        },
        {
            "bufferView" : 1,
            "componentType" : 5126,
            "count" : 164,
            "type" : "VEC3"
        },
        {
            "bufferView" : 2,
            "componentType" : 5126,
            "count" : 164,
            "type" : "VEC2"
        },
        {
            "bufferView" : 3,
            "componentType" : 5121,
            "count" : 164,
            "type" : "VEC4"
        },
        {
            "bufferView" : 4,
            "componentType" : 5126,
            "count" : 164,
            "type" : "VEC4"
        },
        {
            "bufferView" : 5,
            "componentType" : 5123,
            "count" : 360,
            "type" : "SCALAR"
        },
        {
            "bufferView" : 6,
            "componentType" : 5126,
            "count" : 9,
            "type" : "MAT4"
        },
        {
            "bufferView" : 7,
            "componentType" : 5126,
            "count" : 2,
            "max" : [
                0.08333333333333333
            ],
            "min" : [
                0.041666666666666664
            ],
            "type" : "SCALAR"
        },
        {
            "bufferView" : 8,
            "componentType" : 5126,
            "count" : 2,
            "type" : "VEC3"
        },
        {
            "bufferView" : 9,
            "componentType" : 5126,
            "count" : 2,
            "type" : "VEC4"
        },
        {
            "bufferView" : 10,
            "componentType" : 5126,
            "count" : 2,
            "type" : "VEC3"
        },
        {
            "bufferView" : 11,
            "componentType" : 5126,
            "count" : 2,
            "type" : "VEC3"
        },
        {
            "bufferView" : 12,
            "componentType" : 5126,
            "count" : 2,
            "type" : "VEC4"
        },
        {
            "bufferView" : 13,
            "componentType" : 5126,
            "count" : 2,
            "type" : "VEC3"
        },
        {
            "bufferView" : 14,
            "componentType" : 5126,
            "count" : 2,
            "type" : "VEC3"
        },
        {
            "bufferView" : 15,
            "componentType" : 5126,
            "count" : 2,
            "type" : "VEC4"
        },
        {
            "bufferView" : 16,
            "componentType" : 5126,
            "count" : 2,
            "type" : "VEC3"
        },
        {
            "bufferView" : 17,
            "componentType" : 5126,
            "count" : 2,
            "type" : "VEC3"
        },
        {
            "bufferView" : 18,
            "componentType" : 5126,
            "count" : 2,
            "type" : "VEC4"
        },
        {
            "bufferView" : 19,
            "componentType" : 5126,
            "count" : 2,
            "type" : "VEC3"
        },
        {
            "bufferView" : 20,
            "componentType" : 5126,
            "count" : 2,
            "type" : "VEC3"
        },
        {
            "bufferView" : 21,
            "componentType" : 5126,
            "count" : 2,
            "type" : "VEC4"
        },
        {
            "bufferView" : 22,
            "componentType" : 5126,
            "count" : 2,
            "type" : "VEC3"
        },
        {
            "bufferView" : 23,
            "componentType" : 5126,
            "count" : 2,
            "type" : "VEC3"
        },
        {
            "bufferView" : 24,
            "componentType" : 5126,
            "count" : 2,
            "type" : "VEC4"
        },
        {
            "bufferView" : 25,
            "componentType" : 5126,
            "count" : 2,
            "type" : "VEC3"
        },
        {
            "bufferView" : 26,
            "componentType" : 5126,
            "count" : 2,
            "type" : "VEC3"
        },
        {
            "bufferView" : 27,
            "componentType" : 5126,
            "count" : 2,
            "type" : "VEC4"
        },
        {
            "bufferView" : 28,
            "componentType" : 5126,
            "count" : 2,
            "type" : "VEC3"
        },
        {
            "bufferView" : 29,
            "componentType" : 5126,
            "count" : 2,
            "type" : "VEC3"
        },
        {
            "bufferView" : 30,
            "componentType" : 5126,
            "count" : 2,
            "type" : "VEC4"
        },
        {
            "bufferView" : 31,
            "componentType" : 5126,
            "count" : 2,
            "type" : "VEC3"
        },
        {
            "bufferView" : 32,
            "componentType" : 5126,
            "count" : 2,
            "type" : "VEC3"
        },
        {
            "bufferView" : 33,
            "componentType" : 5126,
            "count" : 2,
            "type" : "VEC4"
        },
        {
            "bufferView" : 34,
            "componentType" : 5126,
            "count" : 2,
            "type" : "VEC3"
        }
    ],
    "bufferViews" : [
        {
            "buffer" : 0,
            "byteLength" : 1968,
            "byteOffset" : 0
        },
        {
            "buffer" : 0,
            "byteLength" : 1968,
            "byteOffset" : 1968
        },
        {
            "buffer" : 0,
            "byteLength" : 1312,
            "byteOffset" : 3936
        },
        {
            "buffer" : 0,
            "byteLength" : 656,
            "byteOffset" : 5248
        },
        {
            "buffer" : 0,
            "byteLength" : 2624,
            "byteOffset" : 5904
        },
        {
            "buffer" : 0,
            "byteLength" : 720,
            "byteOffset" : 8528
        },
        {
            "buffer" : 0,
            "byteLength" : 576,
            "byteOffset" : 9248
        },
        {
            "buffer" : 0,
            "byteLength" : 8,
            "byteOffset" : 9824
        },
        {
            "buffer" : 0,
            "byteLength" : 24,
            "byteOffset" : 9832
        },
        {
            "buffer" : 0,
            "byteLength" : 32,
            "byteOffset" : 9856
        },
        {
            "buffer" : 0,
            "byteLength" : 24,
            "byteOffset" : 9888
        },
        {
            "buffer" : 0,
            "byteLength" : 24,
            "byteOffset" : 9912
        },
        {
            "buffer" : 0,
            "byteLength" : 32,
            "byteOffset" : 9936
        },
        {
            "buffer" : 0,
            "byteLength" : 24,
            "byteOffset" : 9968
        },
        {
            "buffer" : 0,
            "byteLength" : 24,
            "byteOffset" : 9992
        },
        {
            "buffer" : 0,
            "byteLength" : 32,
            "byteOffset" : 10016
        },
        {
            "buffer" : 0,
            "byteLength" : 24,
            "byteOffset" : 10048
        },
        {
            "buffer" : 0,
            "byteLength" : 24,
            "byteOffset" : 10072
        },
        {
            "buffer" : 0,
            "byteLength" : 32,
            "byteOffset" : 10096
        },
        {
            "buffer" : 0,
            "byteLength" : 24,
            "byteOffset" : 10128
        },
        {
            "buffer" : 0,
            "byteLength" : 24,
            "byteOffset" : 10152
        },
        {
            "buffer" : 0,
            "byteLength" : 32,
            "byteOffset" : 10176
        },
        {
            "buffer" : 0,
            "byteLength" : 24,
            "byteOffset" : 10208
        },
        {
            "buffer" : 0,
            "byteLength" : 24,
            "byteOffset" : 10232
        },
        {
            "buffer" : 0,
            "byteLength" : 32,
            "byteOffset" : 10256
        },
        {
            "buffer" : 0,
            "byteLength" : 24,
            "byteOffset" : 10288
        },
        {
            "buffer" : 0,
            "byteLength" : 24,
            "byteOffset" : 10312
        },
        {
            "buffer" : 0,
            "byteLength" : 32,
            "byteOffset" : 10336
        },
        {
            "buffer" : 0,
            "byteLength" : 24,
            "byteOffset" : 10368
        },
        {
            "buffer" : 0,
            "byteLength" : 24,
            "byteOffset" : 10392
        },
        {
            "buffer" : 0,
            "byteLength" : 32,
            "byteOffset" : 10416
        },
        {
            "buffer" : 0,
            "byteLength" : 24,
            "byteOffset" : 10448
        },
        {
            "buffer" : 0,
            "byteLength" : 24,
            "byteOffset" : 10472
        },
        {
            "buffer" : 0,
            "byteLength" : 32,
            "byteOffset" : 10496
        },
        {
            "buffer" : 0,
            "byteLength" : 24,
            "byteOffset" : 10528
        }
    ],
    "buffers" : [
        {
            "byteLength" : 10552,
            "uri" : "man.bin"
        }
    ]
}
