{
    "asset" : {
        "generator" : "Khronos glTF Blender I/O v3.2.43",
        "version" : "2.0"
    },
    "scene" : 0,
    "scenes" : [
        {
            "name" : "Scene",
            "nodes" : [
                9
            ]
        }
    ],
    "nodes" : [
        {
            "name" : "Head",
            "rotation" : [
                0,
                -1.721331956618915e-21,
                0,
                1
            ],
            "translation" : [
                0,
                2,
                0
            ]
        },
        {
            "name" : "LeftArm",
            "rotation" : [
                -5.919237722196158e-08,
                -6.218257020407236e-09,
                0.14521312713623047,
                0.9894004464149475
            ],
            "translation" : [
                2.9802322387695312e-08,
                1.0440306663513184,
                -1.4210854715202004e-14
            ]
        },
        {
            "children" : [
                1
            ],
            "name" : "LeftShoulder",
            "rotation" : [
                1.6603814856352983e-07,
                1.2353748957139032e-07,
                -0.8022928833961487,
                0.5969306230545044
            ],
            "scale" : [
                0.9999998807907104,
                0.9999999403953552,
                1
            ],
            "translation" : [
                0,
                2,
                0
            ]
        },
        {
            "name" : "RightArm",
            "rotation" : [
                -3.0640162407280513e-08,
                -7.037468918724699e-08,
                -0.14521312713623047,
                0.9894004464149475
            ],
            "translation" : [
                -2.9802322387695312e-08,
                1.0440306663513184,
                3.3962853281674713e-15
            ]
        },
        {
            "children" : [
                3
            ],
            "name" : "RightShoulder",
            "rotation" : [
                5.610945308376358e-08,
                -4.174714973714799e-08,
                0.8022928833961487,
                0.5969306230545044
            ],
            "scale" : [
                0.9999998807907104,
                0.9999999403953552,
                1
            ],
            "translation" : [
                0,
                2,
                0
            ]
        },
        {
            "children" : [
                0,
                2,
                4
            ],
            "name" : "Spine",
            "rotation" : [
                -0.7071068286895752,
                5.338508302088485e-08,
                5.338508302088485e-08,
                0.7071068286895752
            ],
            "translation" : [
                0,
                1,
                0
            ]
        },
        {
            "name" : "RightHip",
            "rotation" : [
                0.6015010476112366,
                -0.3717479705810547,
                0.3717479109764099,
                0.6015009880065918
            ],
            "translation" : [
                0,
                1,
                0
            ]
        },
        {
            "children" : [
                5,
                6
            ],
            "name" : "Root",
            "rotation" : [
                0.7071068286895752,
                -5.338508302088485e-08,
                -5.338508302088485e-08,
                0.7071068286895752
            ],
            "translation" : [
                0,
                0,
                -1
            ]
        },
        {
            "mesh" : 0,
            "name" : "ManMesh",
            "skin" : 0
        },
        {
            "children" : [
                8,
                7
            ],
            "name" : "Armature"
        }
    ],
    "animations" : [
        {
            "channels" : [
                {
                    "sampler" : 0,
                    "target" : {
                        "node" : 7,
                        "path" : "translation"
                    }
                },
                {
                    "sampler" : 1,
                    "target" : {
                        "node" : 7,
                        "path" : "rotation"
                    }
                },
                {
                    "sampler" : 2,
                    "target" : {
                        "node" : 7,
                        "path" : "scale"
                    }
                },
                {
                    "sampler" : 3,
                    "target" : {
                        "node" : 5,
                        "path" : "translation"
                    }
                },
                {
                    "sampler" : 4,
                    "target" : {
                        "node" : 5,
                        "path" : "rotation"
                    }
                },
                {
                    "sampler" : 5,
                    "target" : {
                        "node" : 5,
                        "path" : "scale"
                    }
                },
                {
                    "sampler" : 6,
                    "target" : {
                        "node" : 0,
                        "path" : "translation"
                    }
                },
                {
                    "sampler" : 7,
                    "target" : {
                        "node" : 0,
                        "path" : "rotation"
                    }
                },
                {
                    "sampler" : 8,
                    "target" : {
                        "node" : 0,
                        "path" : "scale"
                    }
                },
                {
                    "sampler" : 9,
                    "target" : {
                        "node" : 2,
                        "path" : "translation"
                    }
                },
                {
                    "sampler" : 10,
                    "target" : {
                        "node" : 2,
                        "path" : "rotation"
                    }
                },
                {
                    "sampler" : 11,
                    "target" : {
                        "node" : 2,
                        "path" : "scale"
                    }
                },
                {
                    "sampler" : 12,
                    "target" : {
                        "node" : 1,
                        "path" : "translation"
                    }
                },
                {
                    "sampler" : 13,
                    "target" : {
                        "node" : 1,
                        "path" : "rotation"
                    }
                },
                {
                    "sampler" : 14,
                    "target" : {
                        "node" : 1,
                        "path" : "scale"
                    }
                },
                {
                    "sampler" : 15,
                    "target" : {
                        "node" : 4,
                        "path" : "translation"
                    }
                },
                {
                    "sampler" : 16,
                    "target" : {
                        "node" : 4,
                        "path" : "rotation"
                    }
                },
                {
                    "sampler" : 17,
                    "target" : {
                        "node" : 4,
                        "path" : "scale"
                    }
                },
                {
                    "sampler" : 18,
                    "target" : {
                        "node" : 3,
                        "path" : "translation"
                    }
                },
                {
                    "sampler" : 19,
                    "target" : {
                        "node" : 3,
                        "path" : "rotation"
                    }
                },
                {
                    "sampler" : 20,
                    "target" : {
                        "node" : 3,
                        "path" : "scale"
                    }
                },
                {
                    "sampler" : 21,
                    "target" : {
                        "node" : 6,
                        "path" : "translation"
                    }
                },
                {
                    "sampler" : 22,
                    "target" : {
                        "node" : 6,
                        "path" : "rotation"
                    }
                },
                {
                    "sampler" : 23,
                    "target" : {
                        "node" : 6,
                        "path" : "scale"
                    }
                }
            ],
            "name" : "ArmatureAction.001",
            "samplers" : [
                {
                    "input" : 7,
                    "interpolation" : "LINEAR",
                    "output" : 8
                },
                {
                    "input" : 7,
                    "interpolation" : "LINEAR",
                    "output" : 9
                },
                {
                    "input" : 7,
                    "interpolation" : "LINEAR",
                    "output" : 10
                },
                {
                    "input" : 7,
                    "interpolation" : "LINEAR",
                    "output" : 11
                },
                {
                    "input" : 7,
                    "interpolation" : "LINEAR",
                    "output" : 12
                },
                {
                    "input" : 7,
                    "interpolation" : "LINEAR",
                    "output" : 13
                },
                {
                    "input" : 7,
                    "interpolation" : "LINEAR",
                    "output" : 14
                },
                {
                    "input" : 7,
                    "interpolation" : "LINEAR",
                    "output" : 15
                },
                {
                    "input" : 7,
                    "interpolation" : "LINEAR",
                    "output" : 16
                },
                {
                    "input" : 7,
                    "interpolation" : "LINEAR",
                    "output" : 17
                },
                {
                    "input" : 7,
                    "interpolation" : "LINEAR",
                    "output" : 18
                },
                {
                    "input" : 7,
                    "interpolation" : "LINEAR",
                    "output" : 19
                },
                {
                    "input" : 7,
                    "interpolation" : "LINEAR",
                    "output" : 20
                },
                {
                    "input" : 7,
                    "interpolation" : "LINEAR",
                    "output" : 21
                },
                {
                    "input" : 7,
                    "interpolation" : "LINEAR",
                    "output" : 22
                },
                {
                    "input" : 7,
                    "interpolation" : "LINEAR",
                    "output" : 23
                },
                {
                    "input" : 7,
                    "interpolation" : "LINEAR",
                    "output" : 24
                },
                {
                    "input" : 7,
                    "interpolation" : "LINEAR",
                    "output" : 25
                },
                {
                    "input" : 7,
                    "interpolation" : "LINEAR",
                    "output" : 26
                },
                {
                    "input" : 7,
                    "interpolation" : "LINEAR",
                    "output" : 27
                },
                {
                    "input" : 7,
                    "interpolation" : "LINEAR",
                    "output" : 28
                },
                {
                    "input" : 7,
                    "interpolation" : "LINEAR",
                    "output" : 29
                },
                {
                    "input" : 7,
                    "interpolation" : "LINEAR",
                    "output" : 30
                },
                {
                    "input" : 7,
                    "interpolation" : "LINEAR",
                    "output" : 31
                }
            ]
        }
    ],
    "materials" : [
        {
            "doubleSided" : true,
            "name" : "Material",
            "pbrMetallicRoughness" : {
                "baseColorFactor" : [
                    0.800000011920929,
                    0.800000011920929,
                    0.800000011920929,
                    1
                ],
                "metallicFactor" : 0,
                "roughnessFactor" : 0.4000000059604645
            }
        }
    ],
    "meshes" : [
        {
            "name" : "Man",
            "primitives" : [
                {
                    "attributes" : {
                        "POSITION" : 0,
                        "NORMAL" : 1,
                        "TEXCOORD_0" : 2,
                        "JOINTS_0" : 3,
                        "WEIGHTS_0" : 4
                    },
                    "indices" : 5,
                    "material" : 0
                }
            ]
        }
    ],
    "skins" : [
        {
            "inverseBindMatrices" : 6,
            "joints" : [
                7,
                5,
                0,
                2,
                1,
                4,
                3,
                6
            ],
            "name" : "Armature"
        }
    ],
    "accessors" : [
        {
            "bufferView" : 0,
            "componentType" : 5126,
            "count" : 164,
            "max" : [
                3,
                3,
                0.5
            ],
            "min" : [
                -3,
                -3,
                -0.5
            ],
            "type" : "VEC3"
        },
        {
            "bufferView" : 1,
            "componentType" : 5126,
            "count" : 164,
            "type" : "VEC3"
        },
        {
            "bufferView" : 2,
            "componentType" : 5126,
            "count" : 164,
            "type" : "VEC2"
        },
        {
            "bufferView" : 3,
            "componentType" : 5121,
            "count" : 164,
            "type" : "VEC4"
        },
        {
            "bufferView" : 4,
            "componentType" : 5126,
            "count" : 164,
            "type" : "VEC4"
        },
        {
            "bufferView" : 5,
            "componentType" : 5123,
            "count" : 360,
            "type" : "SCALAR"
        },
        {
            "bufferView" : 6,
            "componentType" : 5126,
            "count" : 8,
            "type" : "MAT4"
        },
        {
            "bufferView" : 7,
            "componentType" : 5126,
            "count" : 1,
            "max" : [
                0.041666666666666664
            ],
            "min" : [
                0.041666666666666664
            ],
            "type" : "SCALAR"
        },
        {
            "bufferView" : 8,
            "componentType" : 5126,
            "count" : 1,
            "type" : "VEC3"
        },
        {
            "bufferView" : 9,
            "componentType" : 5126,
            "count" : 1,
            "type" : "VEC4"
        },
        {
            "bufferView" : 10,
            "componentType" : 5126,
            "count" : 1,
            "type" : "VEC3"
        },
        {
            "bufferView" : 11,
            "componentType" : 5126,
            "count" : 1,
            "type" : "VEC3"
        },
        {
            "bufferView" : 12,
            "componentType" : 5126,
            "count" : 1,
            "type" : "VEC4"
        },
        {
            "bufferView" : 13,
            "componentType" : 5126,
            "count" : 1,
            "type" : "VEC3"
        },
        {
            "bufferView" : 14,
            "componentType" : 5126,
            "count" : 1,
            "type" : "VEC3"
        },
        {
            "bufferView" : 15,
            "componentType" : 5126,
            "count" : 1,
            "type" : "VEC4"
        },
        {
            "bufferView" : 16,
            "componentType" : 5126,
            "count" : 1,
            "type" : "VEC3"
        },
        {
            "bufferView" : 17,
            "componentType" : 5126,
            "count" : 1,
            "type" : "VEC3"
        },
        {
            "bufferView" : 18,
            "componentType" : 5126,
            "count" : 1,
            "type" : "VEC4"
        },
        {
            "bufferView" : 19,
            "componentType" : 5126,
            "count" : 1,
            "type" : "VEC3"
        },
        {
            "bufferView" : 20,
            "componentType" : 5126,
            "count" : 1,
            "type" : "VEC3"
        },
        {
            "bufferView" : 21,
            "componentType" : 5126,
            "count" : 1,
            "type" : "VEC4"
        },
        {
            "bufferView" : 22,
            "componentType" : 5126,
            "count" : 1,
            "type" : "VEC3"
        },
        {
            "bufferView" : 23,
            "componentType" : 5126,
            "count" : 1,
            "type" : "VEC3"
        },
        {
            "bufferView" : 24,
            "componentType" : 5126,
            "count" : 1,
            "type" : "VEC4"
        },
        {
            "bufferView" : 25,
            "componentType" : 5126,
            "count" : 1,
            "type" : "VEC3"
        },
        {
            "bufferView" : 26,
            "componentType" : 5126,
            "count" : 1,
            "type" : "VEC3"
        },
        {
            "bufferView" : 27,
            "componentType" : 5126,
            "count" : 1,
            "type" : "VEC4"
        },
        {
            "bufferView" : 28,
            "componentType" : 5126,
            "count" : 1,
            "type" : "VEC3"
        },
        {
            "bufferView" : 29,
            "componentType" : 5126,
            "count" : 1,
            "type" : "VEC3"
        },
        {
            "bufferView" : 30,
            "componentType" : 5126,
            "count" : 1,
            "type" : "VEC4"
        },
        {
            "bufferView" : 31,
            "componentType" : 5126,
            "count" : 1,
            "type" : "VEC3"
        }
    ],
    "bufferViews" : [
        {
            "buffer" : 0,
            "byteLength" : 1968,
            "byteOffset" : 0
        },
        {
            "buffer" : 0,
            "byteLength" : 1968,
            "byteOffset" : 1968
        },
        {
            "buffer" : 0,
            "byteLength" : 1312,
            "byteOffset" : 3936
        },
        {
            "buffer" : 0,
            "byteLength" : 656,
            "byteOffset" : 5248
        },
        {
            "buffer" : 0,
            "byteLength" : 2624,
            "byteOffset" : 5904
        },
        {
            "buffer" : 0,
            "byteLength" : 720,
            "byteOffset" : 8528
        },
        {
            "buffer" : 0,
            "byteLength" : 512,
            "byteOffset" : 9248
        },
        {
            "buffer" : 0,
            "byteLength" : 4,
            "byteOffset" : 9760
        },
        {
            "buffer" : 0,
            "byteLength" : 12,
            "byteOffset" : 9764
        },
        {
            "buffer" : 0,
            "byteLength" : 16,
            "byteOffset" : 9776
        },
        {
            "buffer" : 0,
            "byteLength" : 12,
            "byteOffset" : 9792
        },
        {
            "buffer" : 0,
            "byteLength" : 12,
            "byteOffset" : 9804
        },
        {
            "buffer" : 0,
            "byteLength" : 16,
            "byteOffset" : 9816
        },
        {
            "buffer" : 0,
            "byteLength" : 12,
            "byteOffset" : 9832
        },
        {
            "buffer" : 0,
            "byteLength" : 12,
            "byteOffset" : 9844
        },
        {
            "buffer" : 0,
            "byteLength" : 16,
            "byteOffset" : 9856
        },
        {
            "buffer" : 0,
            "byteLength" : 12,
            "byteOffset" : 9872
        },
        {
            "buffer" : 0,
            "byteLength" : 12,
            "byteOffset" : 9884
        },
        {
            "buffer" : 0,
            "byteLength" : 16,
            "byteOffset" : 9896
        },
        {
            "buffer" : 0,
            "byteLength" : 12,
            "byteOffset" : 9912
        },
        {
            "buffer" : 0,
            "byteLength" : 12,
            "byteOffset" : 9924
        },
        {
            "buffer" : 0,
            "byteLength" : 16,
            "byteOffset" : 9936
        },
        {
            "buffer" : 0,
            "byteLength" : 12,
            "byteOffset" : 9952
        },
        {
            "buffer" : 0,
            "byteLength" : 12,
            "byteOffset" : 9964
        },
        {
            "buffer" : 0,
            "byteLength" : 16,
            "byteOffset" : 9976
        },
        {
            "buffer" : 0,
            "byteLength" : 12,
            "byteOffset" : 9992
        },
        {
            "buffer" : 0,
            "byteLength" : 12,
            "byteOffset" : 10004
        },
        {
            "buffer" : 0,
            "byteLength" : 16,
            "byteOffset" : 10016
        },
        {
            "buffer" : 0,
            "byteLength" : 12,
            "byteOffset" : 10032
        },
        {
            "buffer" : 0,
            "byteLength" : 12,
            "byteOffset" : 10044
        },
        {
            "buffer" : 0,
            "byteLength" : 16,
            "byteOffset" : 10056
        },
        {
            "buffer" : 0,
            "byteLength" : 12,
            "byteOffset" : 10072
        }
    ],
    "buffers" : [
        {
            "byteLength" : 10084,
            "uri" : "man1.bin"
        }
    ]
}
