{
    "asset" : {
        "generator" : "Khronos glTF Blender I/O v3.2.43",
        "version" : "2.0"
    },
    "scene" : 0,
    "scenes" : [
        {
            "name" : "Scene",
            "nodes" : [
                0
            ]
        }
    ],
    "nodes" : [
        {
            "mesh" : 0,
            "name" : "Suzanne"
        }
    ],
    "meshes" : [
        {
            "name" : "Suzanne",
            "primitives" : [
                {
                    "attributes" : {
                        "POSITION" : 0
                    },
                    "indices" : 1
                }
            ]
        }
    ],
    "accessors" : [
        {
            "bufferView" : 0,
            "componentType" : 5126,
            "count" : 2012,
            "max" : [
                1.325934886932373,
                0.9392361640930176,
                0.8223199844360352
            ],
            "min" : [
                -1.325934886932373,
                -0.9704862236976624,
                -0.7782661318778992
            ],
            "type" : "VEC3"
        },
        {
            "bufferView" : 1,
            "componentType" : 5123,
            "count" : 11808,
            "type" : "SCALAR"
        }
    ],
    "bufferViews" : [
        {
            "buffer" : 0,
            "byteLength" : 24144,
            "byteOffset" : 0
        },
        {
            "buffer" : 0,
            "byteLength" : 23616,
            "byteOffset" : 24144
        }
    ],
    "buffers" : [
        {
            "byteLength" : 47760,
            "uri" : "monkey.bin"
        }
    ]
}
