{
    "asset" : {
        "generator" : "Khronos glTF Blender I/O v3.2.43",
        "version" : "2.0"
    },
    "scene" : 0,
    "scenes" : [
        {
            "name" : "Scene",
            "nodes" : [
                11
            ]
        }
    ],
    "nodes" : [
        {
            "name" : "Bone.004",
            "translation" : [
                0,
                5,
                0
            ]
        },
        {
            "children" : [
                0
            ],
            "name" : "Bone.003",
            "translation" : [
                0,
                5,
                0
            ]
        },
        {
            "children" : [
                1
            ],
            "name" : "Bone.002",
            "translation" : [
                0,
                5,
                0
            ]
        },
        {
            "children" : [
                2
            ],
            "name" : "Bone.001",
            "rotation" : [
                -2.6692541510442425e-08,
                -2.6692541510442425e-08,
                -0.7071068286895752,
                0.7071068286895752
            ],
            "translation" : [
                0,
                9,
                0
            ]
        },
        {
            "name" : "Bone.008",
            "translation" : [
                0,
                5,
                0
            ]
        },
        {
            "children" : [
                4
            ],
            "name" : "Bone.007",
            "translation" : [
                0,
                5,
                0
            ]
        },
        {
            "children" : [
                5
            ],
            "name" : "Bone.006",
            "translation" : [
                0,
                5,
                0
            ]
        },
        {
            "children" : [
                6
            ],
            "name" : "Bone.005",
            "rotation" : [
                -2.6692541510442425e-08,
                2.6692541510442425e-08,
                0.7071068286895752,
                0.7071068286895752
            ],
            "translation" : [
                0,
                9,
                0
            ]
        },
        {
            "children" : [
                3,
                7
            ],
            "name" : "Bone"
        },
        {
            "name" : "Bone.009"
        },
        {
            "mesh" : 0,
            "name" : "Cube",
            "skin" : 0
        },
        {
            "children" : [
                10,
                8,
                9
            ],
            "name" : "Armature"
        }
    ],
    "animations" : [
        {
            "channels" : [
                {
                    "sampler" : 0,
                    "target" : {
                        "node" : 8,
                        "path" : "translation"
                    }
                },
                {
                    "sampler" : 1,
                    "target" : {
                        "node" : 8,
                        "path" : "rotation"
                    }
                },
                {
                    "sampler" : 2,
                    "target" : {
                        "node" : 8,
                        "path" : "scale"
                    }
                },
                {
                    "sampler" : 3,
                    "target" : {
                        "node" : 3,
                        "path" : "translation"
                    }
                },
                {
                    "sampler" : 4,
                    "target" : {
                        "node" : 3,
                        "path" : "rotation"
                    }
                },
                {
                    "sampler" : 5,
                    "target" : {
                        "node" : 3,
                        "path" : "scale"
                    }
                },
                {
                    "sampler" : 6,
                    "target" : {
                        "node" : 2,
                        "path" : "translation"
                    }
                },
                {
                    "sampler" : 7,
                    "target" : {
                        "node" : 2,
                        "path" : "rotation"
                    }
                },
                {
                    "sampler" : 8,
                    "target" : {
                        "node" : 2,
                        "path" : "scale"
                    }
                },
                {
                    "sampler" : 9,
                    "target" : {
                        "node" : 1,
                        "path" : "translation"
                    }
                },
                {
                    "sampler" : 10,
                    "target" : {
                        "node" : 1,
                        "path" : "rotation"
                    }
                },
                {
                    "sampler" : 11,
                    "target" : {
                        "node" : 1,
                        "path" : "scale"
                    }
                },
                {
                    "sampler" : 12,
                    "target" : {
                        "node" : 0,
                        "path" : "translation"
                    }
                },
                {
                    "sampler" : 13,
                    "target" : {
                        "node" : 0,
                        "path" : "rotation"
                    }
                },
                {
                    "sampler" : 14,
                    "target" : {
                        "node" : 0,
                        "path" : "scale"
                    }
                },
                {
                    "sampler" : 15,
                    "target" : {
                        "node" : 7,
                        "path" : "translation"
                    }
                },
                {
                    "sampler" : 16,
                    "target" : {
                        "node" : 7,
                        "path" : "rotation"
                    }
                },
                {
                    "sampler" : 17,
                    "target" : {
                        "node" : 7,
                        "path" : "scale"
                    }
                },
                {
                    "sampler" : 18,
                    "target" : {
                        "node" : 6,
                        "path" : "translation"
                    }
                },
                {
                    "sampler" : 19,
                    "target" : {
                        "node" : 6,
                        "path" : "rotation"
                    }
                },
                {
                    "sampler" : 20,
                    "target" : {
                        "node" : 6,
                        "path" : "scale"
                    }
                },
                {
                    "sampler" : 21,
                    "target" : {
                        "node" : 5,
                        "path" : "translation"
                    }
                },
                {
                    "sampler" : 22,
                    "target" : {
                        "node" : 5,
                        "path" : "rotation"
                    }
                },
                {
                    "sampler" : 23,
                    "target" : {
                        "node" : 5,
                        "path" : "scale"
                    }
                },
                {
                    "sampler" : 24,
                    "target" : {
                        "node" : 4,
                        "path" : "translation"
                    }
                },
                {
                    "sampler" : 25,
                    "target" : {
                        "node" : 4,
                        "path" : "rotation"
                    }
                },
                {
                    "sampler" : 26,
                    "target" : {
                        "node" : 4,
                        "path" : "scale"
                    }
                },
                {
                    "sampler" : 27,
                    "target" : {
                        "node" : 9,
                        "path" : "translation"
                    }
                },
                {
                    "sampler" : 28,
                    "target" : {
                        "node" : 9,
                        "path" : "rotation"
                    }
                },
                {
                    "sampler" : 29,
                    "target" : {
                        "node" : 9,
                        "path" : "scale"
                    }
                }
            ],
            "name" : "ArmatureAction",
            "samplers" : [
                {
                    "input" : 7,
                    "interpolation" : "LINEAR",
                    "output" : 8
                },
                {
                    "input" : 7,
                    "interpolation" : "LINEAR",
                    "output" : 9
                },
                {
                    "input" : 7,
                    "interpolation" : "LINEAR",
                    "output" : 10
                },
                {
                    "input" : 7,
                    "interpolation" : "LINEAR",
                    "output" : 11
                },
                {
                    "input" : 7,
                    "interpolation" : "LINEAR",
                    "output" : 12
                },
                {
                    "input" : 7,
                    "interpolation" : "LINEAR",
                    "output" : 13
                },
                {
                    "input" : 7,
                    "interpolation" : "LINEAR",
                    "output" : 14
                },
                {
                    "input" : 7,
                    "interpolation" : "LINEAR",
                    "output" : 15
                },
                {
                    "input" : 7,
                    "interpolation" : "LINEAR",
                    "output" : 16
                },
                {
                    "input" : 7,
                    "interpolation" : "LINEAR",
                    "output" : 17
                },
                {
                    "input" : 7,
                    "interpolation" : "LINEAR",
                    "output" : 18
                },
                {
                    "input" : 7,
                    "interpolation" : "LINEAR",
                    "output" : 19
                },
                {
                    "input" : 7,
                    "interpolation" : "LINEAR",
                    "output" : 20
                },
                {
                    "input" : 7,
                    "interpolation" : "LINEAR",
                    "output" : 21
                },
                {
                    "input" : 7,
                    "interpolation" : "LINEAR",
                    "output" : 22
                },
                {
                    "input" : 7,
                    "interpolation" : "LINEAR",
                    "output" : 23
                },
                {
                    "input" : 7,
                    "interpolation" : "LINEAR",
                    "output" : 24
                },
                {
                    "input" : 7,
                    "interpolation" : "LINEAR",
                    "output" : 25
                },
                {
                    "input" : 7,
                    "interpolation" : "LINEAR",
                    "output" : 26
                },
                {
                    "input" : 7,
                    "interpolation" : "LINEAR",
                    "output" : 27
                },
                {
                    "input" : 7,
                    "interpolation" : "LINEAR",
                    "output" : 28
                },
                {
                    "input" : 7,
                    "interpolation" : "LINEAR",
                    "output" : 29
                },
                {
                    "input" : 7,
                    "interpolation" : "LINEAR",
                    "output" : 30
                },
                {
                    "input" : 7,
                    "interpolation" : "LINEAR",
                    "output" : 31
                },
                {
                    "input" : 7,
                    "interpolation" : "LINEAR",
                    "output" : 32
                },
                {
                    "input" : 7,
                    "interpolation" : "LINEAR",
                    "output" : 33
                },
                {
                    "input" : 7,
                    "interpolation" : "LINEAR",
                    "output" : 34
                },
                {
                    "input" : 7,
                    "interpolation" : "LINEAR",
                    "output" : 35
                },
                {
                    "input" : 7,
                    "interpolation" : "LINEAR",
                    "output" : 36
                },
                {
                    "input" : 7,
                    "interpolation" : "LINEAR",
                    "output" : 37
                }
            ]
        }
    ],
    "materials" : [
        {
            "doubleSided" : true,
            "name" : "Material",
            "pbrMetallicRoughness" : {
                "baseColorFactor" : [
                    0.800000011920929,
                    0.800000011920929,
                    0.800000011920929,
                    1
                ],
                "metallicFactor" : 0,
                "roughnessFactor" : 0.4000000059604645
            }
        }
    ],
    "meshes" : [
        {
            "name" : "Cube",
            "primitives" : [
                {
                    "attributes" : {
                        "POSITION" : 0,
                        "NORMAL" : 1,
                        "TEXCOORD_0" : 2,
                        "JOINTS_0" : 3,
                        "WEIGHTS_0" : 4
                    },
                    "indices" : 5,
                    "material" : 0
                }
            ]
        }
    ],
    "skins" : [
        {
            "inverseBindMatrices" : 6,
            "joints" : [
                8,
                3,
                2,
                1,
                0,
                7,
                6,
                5,
                4,
                9
            ],
            "name" : "Armature"
        }
    ],
    "accessors" : [
        {
            "bufferView" : 0,
            "componentType" : 5126,
            "count" : 112,
            "max" : [
                20,
                10,
                1
            ],
            "min" : [
                -20,
                -1,
                -1
            ],
            "type" : "VEC3"
        },
        {
            "bufferView" : 1,
            "componentType" : 5126,
            "count" : 112,
            "type" : "VEC3"
        },
        {
            "bufferView" : 2,
            "componentType" : 5126,
            "count" : 112,
            "type" : "VEC2"
        },
        {
            "bufferView" : 3,
            "componentType" : 5121,
            "count" : 112,
            "type" : "VEC4"
        },
        {
            "bufferView" : 4,
            "componentType" : 5126,
            "count" : 112,
            "type" : "VEC4"
        },
        {
            "bufferView" : 5,
            "componentType" : 5123,
            "count" : 276,
            "type" : "SCALAR"
        },
        {
            "bufferView" : 6,
            "componentType" : 5126,
            "count" : 10,
            "type" : "MAT4"
        },
        {
            "bufferView" : 7,
            "componentType" : 5126,
            "count" : 2,
            "max" : [
                0.08333333333333333
            ],
            "min" : [
                0.041666666666666664
            ],
            "type" : "SCALAR"
        },
        {
            "bufferView" : 8,
            "componentType" : 5126,
            "count" : 2,
            "type" : "VEC3"
        },
        {
            "bufferView" : 9,
            "componentType" : 5126,
            "count" : 2,
            "type" : "VEC4"
        },
        {
            "bufferView" : 10,
            "componentType" : 5126,
            "count" : 2,
            "type" : "VEC3"
        },
        {
            "bufferView" : 11,
            "componentType" : 5126,
            "count" : 2,
            "type" : "VEC3"
        },
        {
            "bufferView" : 12,
            "componentType" : 5126,
            "count" : 2,
            "type" : "VEC4"
        },
        {
            "bufferView" : 13,
            "componentType" : 5126,
            "count" : 2,
            "type" : "VEC3"
        },
        {
            "bufferView" : 14,
            "componentType" : 5126,
            "count" : 2,
            "type" : "VEC3"
        },
        {
            "bufferView" : 15,
            "componentType" : 5126,
            "count" : 2,
            "type" : "VEC4"
        },
        {
            "bufferView" : 16,
            "componentType" : 5126,
            "count" : 2,
            "type" : "VEC3"
        },
        {
            "bufferView" : 17,
            "componentType" : 5126,
            "count" : 2,
            "type" : "VEC3"
        },
        {
            "bufferView" : 18,
            "componentType" : 5126,
            "count" : 2,
            "type" : "VEC4"
        },
        {
            "bufferView" : 19,
            "componentType" : 5126,
            "count" : 2,
            "type" : "VEC3"
        },
        {
            "bufferView" : 20,
            "componentType" : 5126,
            "count" : 2,
            "type" : "VEC3"
        },
        {
            "bufferView" : 21,
            "componentType" : 5126,
            "count" : 2,
            "type" : "VEC4"
        },
        {
            "bufferView" : 22,
            "componentType" : 5126,
            "count" : 2,
            "type" : "VEC3"
        },
        {
            "bufferView" : 23,
            "componentType" : 5126,
            "count" : 2,
            "type" : "VEC3"
        },
        {
            "bufferView" : 24,
            "componentType" : 5126,
            "count" : 2,
            "type" : "VEC4"
        },
        {
            "bufferView" : 25,
            "componentType" : 5126,
            "count" : 2,
            "type" : "VEC3"
        },
        {
            "bufferView" : 26,
            "componentType" : 5126,
            "count" : 2,
            "type" : "VEC3"
        },
        {
            "bufferView" : 27,
            "componentType" : 5126,
            "count" : 2,
            "type" : "VEC4"
        },
        {
            "bufferView" : 28,
            "componentType" : 5126,
            "count" : 2,
            "type" : "VEC3"
        },
        {
            "bufferView" : 29,
            "componentType" : 5126,
            "count" : 2,
            "type" : "VEC3"
        },
        {
            "bufferView" : 30,
            "componentType" : 5126,
            "count" : 2,
            "type" : "VEC4"
        },
        {
            "bufferView" : 31,
            "componentType" : 5126,
            "count" : 2,
            "type" : "VEC3"
        },
        {
            "bufferView" : 32,
            "componentType" : 5126,
            "count" : 2,
            "type" : "VEC3"
        },
        {
            "bufferView" : 33,
            "componentType" : 5126,
            "count" : 2,
            "type" : "VEC4"
        },
        {
            "bufferView" : 34,
            "componentType" : 5126,
            "count" : 2,
            "type" : "VEC3"
        },
        {
            "bufferView" : 35,
            "componentType" : 5126,
            "count" : 2,
            "type" : "VEC3"
        },
        {
            "bufferView" : 36,
            "componentType" : 5126,
            "count" : 2,
            "type" : "VEC4"
        },
        {
            "bufferView" : 37,
            "componentType" : 5126,
            "count" : 2,
            "type" : "VEC3"
        }
    ],
    "bufferViews" : [
        {
            "buffer" : 0,
            "byteLength" : 1344,
            "byteOffset" : 0
        },
        {
            "buffer" : 0,
            "byteLength" : 1344,
            "byteOffset" : 1344
        },
        {
            "buffer" : 0,
            "byteLength" : 896,
            "byteOffset" : 2688
        },
        {
            "buffer" : 0,
            "byteLength" : 448,
            "byteOffset" : 3584
        },
        {
            "buffer" : 0,
            "byteLength" : 1792,
            "byteOffset" : 4032
        },
        {
            "buffer" : 0,
            "byteLength" : 552,
            "byteOffset" : 5824
        },
        {
            "buffer" : 0,
            "byteLength" : 640,
            "byteOffset" : 6376
        },
        {
            "buffer" : 0,
            "byteLength" : 8,
            "byteOffset" : 7016
        },
        {
            "buffer" : 0,
            "byteLength" : 24,
            "byteOffset" : 7024
        },
        {
            "buffer" : 0,
            "byteLength" : 32,
            "byteOffset" : 7048
        },
        {
            "buffer" : 0,
            "byteLength" : 24,
            "byteOffset" : 7080
        },
        {
            "buffer" : 0,
            "byteLength" : 24,
            "byteOffset" : 7104
        },
        {
            "buffer" : 0,
            "byteLength" : 32,
            "byteOffset" : 7128
        },
        {
            "buffer" : 0,
            "byteLength" : 24,
            "byteOffset" : 7160
        },
        {
            "buffer" : 0,
            "byteLength" : 24,
            "byteOffset" : 7184
        },
        {
            "buffer" : 0,
            "byteLength" : 32,
            "byteOffset" : 7208
        },
        {
            "buffer" : 0,
            "byteLength" : 24,
            "byteOffset" : 7240
        },
        {
            "buffer" : 0,
            "byteLength" : 24,
            "byteOffset" : 7264
        },
        {
            "buffer" : 0,
            "byteLength" : 32,
            "byteOffset" : 7288
        },
        {
            "buffer" : 0,
            "byteLength" : 24,
            "byteOffset" : 7320
        },
        {
            "buffer" : 0,
            "byteLength" : 24,
            "byteOffset" : 7344
        },
        {
            "buffer" : 0,
            "byteLength" : 32,
            "byteOffset" : 7368
        },
        {
            "buffer" : 0,
            "byteLength" : 24,
            "byteOffset" : 7400
        },
        {
            "buffer" : 0,
            "byteLength" : 24,
            "byteOffset" : 7424
        },
        {
            "buffer" : 0,
            "byteLength" : 32,
            "byteOffset" : 7448
        },
        {
            "buffer" : 0,
            "byteLength" : 24,
            "byteOffset" : 7480
        },
        {
            "buffer" : 0,
            "byteLength" : 24,
            "byteOffset" : 7504
        },
        {
            "buffer" : 0,
            "byteLength" : 32,
            "byteOffset" : 7528
        },
        {
            "buffer" : 0,
            "byteLength" : 24,
            "byteOffset" : 7560
        },
        {
            "buffer" : 0,
            "byteLength" : 24,
            "byteOffset" : 7584
        },
        {
            "buffer" : 0,
            "byteLength" : 32,
            "byteOffset" : 7608
        },
        {
            "buffer" : 0,
            "byteLength" : 24,
            "byteOffset" : 7640
        },
        {
            "buffer" : 0,
            "byteLength" : 24,
            "byteOffset" : 7664
        },
        {
            "buffer" : 0,
            "byteLength" : 32,
            "byteOffset" : 7688
        },
        {
            "buffer" : 0,
            "byteLength" : 24,
            "byteOffset" : 7720
        },
        {
            "buffer" : 0,
            "byteLength" : 24,
            "byteOffset" : 7744
        },
        {
            "buffer" : 0,
            "byteLength" : 32,
            "byteOffset" : 7768
        },
        {
            "buffer" : 0,
            "byteLength" : 24,
            "byteOffset" : 7800
        }
    ],
    "buffers" : [
        {
            "byteLength" : 7824,
            "uri" : "test3.bin"
        }
    ]
}
